# xmcd
#
# Track frame offsets:
# 150
# 24910
# 48081
# 65276
# 81401
# 103725
# 118921
# 134999
# 162312
#
# Disc length: 2702 seconds
#
# Revision: 0
# Processed by: cddbd v1.5.1PL0 Copyright (c) Steve Scherf et al.
# Submitted via: Audion 3.0.2 (http://www.panic.com/audion/)
#
DISCID=7b0a8c09
DTITLE=Angie Palmer - Road
DYEAR=1900
DGENRE=
TTITLE0=Footprints In The Snow
TTITLE1=Comin' Home
TTITLE2=When You Call (forLucia)
TTITLE3=Less Than I Need You
TTITLE4=Satellites
TTITLE5=Fishtails
TTITLE6=The Ballad of Love and Strife
TTITLE7=Followed Down Sundown
TTITLE8=Down the Streef of The Car Who Fished
EXTD=
EXTT0=
EXTT1=
EXTT2=
EXTT3=
EXTT4=
EXTT5=
EXTT6=
EXTT7=
EXTT8=
PLAYORDER=
